<?xml version="1.0" standalone="no"?>
<!DOCTYPE svg PUBLIC "-//W3C//DTD SVG 20010904//EN"
 "http://www.w3.org/TR/2001/REC-SVG-20010904/DTD/svg10.dtd">
<svg version="1.0" xmlns="http://www.w3.org/2000/svg"
 width="200.000000pt" height="200.000000pt" viewBox="0 0 200.000000 200.000000"
 preserveAspectRatio="xMidYMid meet">
<metadata>
Created by potrace 1.11, written by Peter Selinger 2001-2013
</metadata>
<g transform="translate(0.000000,200.000000) scale(0.100000,-0.100000)"
fill="#000000" stroke="none">
<path d="M924 1891 c-17 -10 -41 -32 -53 -47 -42 -53 -462 -914 -697 -1432
-22 -48 -28 -123 -12 -144 48 -62 207 3 360 147 175 165 329 194 534 101 70
-32 145 -83 361 -248 182 -138 262 -188 302 -188 30 0 67 40 80 86 21 75 9
168 -33 259 -8 17 -53 120 -101 230 -48 110 -100 228 -116 263 -16 35 -29 65
-29 67 0 3 -15 37 -34 77 -19 40 -63 136 -98 213 -36 77 -100 217 -143 310
-90 195 -136 270 -184 302 -42 28 -95 30 -137 4z m105 -555 c31 -28 119 -212
174 -366 55 -154 61 -184 39 -209 -31 -37 -64 -32 -132 20 -82 63 -149 90
-235 96 -67 5 -80 3 -130 -21 -30 -15 -80 -50 -110 -77 l-54 -50 30 68 c84
186 231 472 260 507 56 67 108 77 158 32z"/>
</g>
</svg>
