<?xml version="1.0" encoding="utf-8"?>

<svg version="1.1" 
	 xmlns="http://www.w3.org/2000/svg" x="0px" y="0px" width="595.28px"
	 height="841.89px" viewBox="0 0 595.28 841.89">

		<rect x="269.333" y="383.667" display="none" fill="#434343" width="132.667" height="78.667"/>
		
			<image display="none" overflow="visible" width="27" height="49" xlink:href="\\mlnas\UX_Touch\Appmart\Usability &amp; Design\UI\SSP\Specifications\images\mobile.png"  transform="matrix(0.9999 0 0 0.9999 274.6685 396.4478)">
		</image>
		
			<path fill="#FFFFFF" d="M369.109,443.234h-18.782c-2.036,0-3.693-1.657-3.693-3.693v-40.546c0-2.037,1.657-3.694,3.693-3.694
				h18.782c2.036,0,3.693,1.657,3.693,3.694v40.546C372.803,441.577,371.146,443.234,369.109,443.234z M350.327,396.078
				c-1.607,0-2.916,1.309-2.916,2.917v40.546c0,1.607,1.309,2.916,2.916,2.916h18.782c1.607,0,2.916-1.309,2.916-2.916v-40.546
				c0-1.608-1.309-2.917-2.916-2.917H350.327z"/>
		
		<path fill="#FFFFFF" d="M372.813,402.226c0,0.178-0.196,0.323-0.438,0.323H347.46c-0.241,0-0.438-0.145-0.438-0.323l0,0
			c0-0.178,0.196-0.323,0.438-0.323h24.915C372.616,401.903,372.813,402.047,372.813,402.226L372.813,402.226z"/>
		<path fill="#FFFFFF" d="M372.813,436.927c0,0.178-0.196,0.322-0.438,0.322H347.46c-0.241,0-0.438-0.145-0.438-0.322l0,0
			c0-0.179,0.196-0.323,0.438-0.323h24.915C372.616,436.604,372.813,436.748,372.813,436.927L372.813,436.927z"/>
		<path id="Arrow_Download_1_" fill="#40BC9F" d="M363.574,420.189c-0.141-0.15-0.372-0.15-0.514,0l-2.98,3.168v-10.666
			c0-0.213-0.161-0.387-0.362-0.387s-0.364,0.174-0.364,0.387v10.666l-2.979-3.168c-0.142-0.15-0.371-0.15-0.514,0
			c-0.142,0.151-0.142,0.396,0,0.548l3.6,3.828c0.142,0.148,0.374,0.148,0.514,0l3.602-3.828
			C363.717,420.586,363.717,420.341,363.574,420.189C363.434,420.039,363.717,420.341,363.574,420.189z"/>

</svg>
