<?xml version="1.0" encoding="utf-8"?>

  <svg version="1.1" xmlns="http://www.w3.org/2000/svg" x="0px" y="0px" width="218" height="10"  viewBox="0 0 915 48">

                            <g id="g13892" transform="matrix(3.876956,0,0,-3.876956,309.27121,390.57543)">
                                <path id="path13894"  fill="#ffffff" d="M-18.485,90.793c-0.557-0.251-1.449-0.42-2.304-0.42
                                    c-2.541,0-4.024,1.615-4.024,4.161c0,2.779,1.695,4.251,4.053,4.251c0.943,0,1.715-0.209,2.252-0.452l0.46,1.681
                                    c-0.429,0.231-1.409,0.511-2.801,0.511c-3.533,0-6.188-2.295-6.188-6.096c0-3.519,2.235-5.825,5.902-5.825
                                    c1.398,0,2.498,0.274,2.998,0.526L-18.485,90.793z M-12.083,88.595c3.167,0,5.514,2.215,5.514,6.088
                                    c0,3.304-1.99,5.851-5.359,5.851c-3.264,0-5.505-2.507-5.505-6.057c0-3.384,2.066-5.882,5.333-5.882H-12.083z M-12.028,90.287
                                    c-2.018,0-3.199,1.944-3.193,4.242c-0.003,2.304,1.109,4.315,3.215,4.315c2.107,0,3.19-2.06,3.19-4.241
                                    c0-2.418-1.154-4.316-3.195-4.316H-12.028z M-2.808,88.785v4.138c0,1.898-0.029,3.425-0.111,4.925l0.054,0.012
                                    c0.569-1.309,1.335-2.718,2.072-3.988l3.019-5.087h2.186v11.561H2.46v-4.033c0-1.766,0.04-3.255,0.188-4.79l-0.039-0.012
                                    c-0.535,1.255-1.207,2.599-1.97,3.873l-2.987,4.962H-4.76V88.788L-2.808,88.785z M6.327,89.341
                                    c0.632-0.386,1.901-0.737,3.124-0.737c2.984,0,4.384,1.615,4.384,3.475c0,1.661-0.966,2.67-2.972,3.436
                                    C9.32,96.105,8.65,96.522,8.65,97.407c0,0.68,0.569,1.392,1.91,1.392c1.086,0,1.892-0.329,2.309-0.549l0.506,1.704
                                    c-0.603,0.306-1.52,0.571-2.772,0.571c-2.507,0-4.09-1.426-4.09-3.318c0-1.658,1.22-2.681,3.129-3.359
                                    c1.461-0.531,2.047-1.046,2.047-1.917c0-0.946-0.755-1.578-2.101-1.578c-1.075,0-2.112,0.343-2.792,0.737L6.327,89.341z
                                    M15.722,100.345v-6.614c0-3.635,1.738-5.136,4.404-5.136c2.793,0,4.625,1.586,4.625,5.148v6.602h-2.112v-6.739
                                    c0-2.267-0.915-3.31-2.436-3.31c-1.431,0-2.369,1.051-2.369,3.31v6.739H15.722z M27.155,88.788h6.865v1.772h-4.753v9.786h-2.112
                                    V88.788z M36.149,88.785h2.113v9.786h3.332v1.775h-8.746v-1.775h3.301V88.785z M47.671,92.054l1.046-3.269h2.266l-3.755,11.561
                                    h-2.687l-3.71-11.561h2.183l0.987,3.269H47.671z M44.344,93.649l0.894,2.856c0.203,0.689,0.381,1.489,0.549,2.166h0.037
                                    c0.175-0.668,0.366-1.457,0.586-2.172l0.912-2.85H44.344z M54.539,88.785v4.138c0,1.898-0.029,3.425-0.111,4.925l0.054,0.012
                                    c0.569-1.309,1.335-2.718,2.072-3.988l3.018-5.087h2.187v11.561h-1.952v-4.033c0-1.766,0.04-3.255,0.188-4.79l-0.04-0.012
                                    c-0.534,1.255-1.206,2.599-1.969,3.873l-2.987,4.962h-2.412V88.788L54.539,88.785z M72.131,90.793
                                    c-0.557-0.251-1.449-0.42-2.303-0.42c-2.541,0-4.025,1.615-4.025,4.161c0,2.779,1.695,4.251,4.053,4.251
                                    c0.943,0,1.715-0.209,2.252-0.452l0.461,1.681c-0.429,0.231-1.409,0.511-2.801,0.511c-3.533,0-6.189-2.295-6.189-6.096
                                    c0-3.519,2.236-5.825,5.903-5.825c1.397,0,2.498,0.274,2.998,0.526L72.131,90.793z M79.005,88.785v4.873l3.839,6.688h-2.381
                                    l-1.392-2.961c-0.386-0.843-0.714-1.558-1-2.295h-0.035c-0.317,0.783-0.614,1.44-1.009,2.289l-1.374,2.967h-2.416l3.656-6.748
                                    v-4.813H79.005z M87.168,89.341c0.632-0.386,1.901-0.737,3.124-0.737c2.984,0,4.385,1.615,4.385,3.475
                                    c0,1.661-0.966,2.67-2.973,3.436c-1.543,0.589-2.212,1.006-2.212,1.892c0,0.68,0.569,1.392,1.909,1.392
                                    c1.086,0,1.892-0.329,2.31-0.549l0.506,1.704c-0.604,0.306-1.521,0.571-2.773,0.571c-2.506,0-4.09-1.426-4.09-3.318
                                    c0-1.658,1.221-2.681,3.13-3.359c1.46-0.531,2.046-1.046,2.046-1.917c0-0.946-0.754-1.578-2.1-1.578
                                    c-1.075,0-2.113,0.343-2.793,0.737L87.168,89.341z M103.043,95.639h-4.356v2.969h4.616v1.738h-6.729V88.788h6.983v1.738h-4.87
                                    v3.389h4.356V95.639z M105.406,88.785h2.095v4.753h1.064c1.2-0.028,1.749-0.517,2.08-2.024c0.324-1.437,0.601-2.392,0.778-2.729
                                    h2.169c-0.231,0.451-0.546,1.778-0.911,3.224c-0.289,1.123-0.775,1.92-1.613,2.238v0.048c1.089,0.386,2.101,1.401,2.101,2.89
                                    c0,0.992-0.36,1.792-0.995,2.321c-0.78,0.652-1.909,0.931-3.567,0.931c-1.226,0-2.398-0.102-3.201-0.248V88.785z M107.501,98.739
                                    c0.215,0.054,0.643,0.105,1.312,0.105c1.367-0.005,2.253-0.594,2.253-1.854c0-1.149-0.884-1.904-2.315-1.904h-1.25V98.739z
                                    M120.3,88.785l3.996,11.561h-2.246l-1.687-5.288c-0.448-1.403-0.869-2.815-1.175-4.178h-0.037
                                    c-0.3,1.397-0.685,2.752-1.132,4.21l-1.577,5.256h-2.304l3.741-11.561H120.3z M125.539,100.345V88.785h2.113v11.561H125.539z
                                    M138.018,90.793c-0.557-0.251-1.449-0.42-2.303-0.42c-2.541,0-4.025,1.615-4.025,4.161c0,2.779,1.695,4.251,4.053,4.251
                                    c0.943,0,1.715-0.209,2.252-0.452l0.461,1.681c-0.429,0.231-1.409,0.511-2.801,0.511c-3.533,0-6.188-2.295-6.188-6.096
                                    c0-3.519,2.235-5.825,5.902-5.825c1.398,0,2.498,0.274,2.998,0.526L138.018,90.793z M146.619,95.639h-4.356v2.969h4.616v1.738
                                    h-6.728V88.788h6.982v1.738h-4.87v3.389h4.356V95.639z M148.477,89.341c0.631-0.386,1.9-0.737,3.124-0.737
                                    c2.984,0,4.384,1.615,4.384,3.475c0,1.661-0.966,2.67-2.973,3.436c-1.543,0.589-2.212,1.006-2.212,1.892
                                    c0,0.68,0.569,1.392,1.91,1.392c1.086,0,1.892-0.329,2.309-0.549l0.506,1.704c-0.603,0.306-1.521,0.571-2.772,0.571
                                    c-2.507,0-4.091-1.426-4.091-3.318c0-1.658,1.221-2.681,3.13-3.359c1.461-0.531,2.047-1.046,2.047-1.917
                                    c0-0.946-0.755-1.578-2.101-1.578c-1.075,0-2.112,0.343-2.793,0.737L148.477,89.341z"/>
                            </g>
                            <g id="g13898" transform="matrix(3.876956,0,0,-3.876956,116.93236,366.46272)">
                                <path id="path13900" fill="#ffffff" d="M-18.485,90.793v3.326c-3.72,0-7.44,0-11.16,0v-3.326
                                    h3.272v-8.23h4.615v8.23H-18.485z M-12.733,89.474l-2.351-6.91h-4.51l4.42,11.556c1.627,0,3.254,0,4.881,0l4.421-11.556h-4.51
                                    L-12.733,89.474z M4.182,90.793v3.326c-3.72,0-7.44,0-11.16,0v-3.326h3.272v-8.23h4.615v8.23H4.182z M9.934,89.474l-2.351-6.91
                                    H3.072l4.421,11.556c1.627,0,3.254,0,4.881,0l4.421-11.556h-4.51L9.934,89.474z"/>
                            </g>
                    </svg>