<!-- Generated by IcoMoon.io -->
<svg version="1.1" xmlns="http://www.w3.org/2000/svg" width="64" height="64" viewBox="0 0 64 64">
<title>fast_reliable_icon</title>
<path fill="#d8e6e4" opacity="0.5" d="M0.963 26.762c-0.733 0.887-0.711 2.015 0.948 4.504s4.267 2.015 5.452 1.422c1.185-0.593 5.333-3.556 7.704-3.911s4.030 0.948 4.978 2.133 2.489 3.2-1.659 5.096-9.719 5.215-7.904 8.461c1.379 2.468 3.23 3.046 6.363 1.257 3.92-2.238 6.163-0.474 6.874 1.659s-0.487 3.227-4.622 7.585c-1.346 1.419-3.324 9.657 4.148 6.637 9.034-3.651 37.215-22.4 37.215-22.4s4.030-1.541 1.067-5.57c-2.050-2.789-4.741-0.711-5.57-0.237s-7.595 6.288-10.904 1.541c-2.726-3.911 2.859-7.407 4.622-8.178 1.478-0.645 7.348-2.607 4.385-6.637s-6.983-0.197-9.007 1.067c-2.422 1.512-5.338 1.324-7.23-1.304-2.133-2.963-2.963-4.267 5.57-8.889 0 0 3.319-1.659 1.304-5.096s-5.096-1.541-7.822 0-29.291 12.862-35.911 20.859z"></path>
<path fill="#d8e6e4" opacity="0.5" d="M59.478 21.101c-1.847 0.988-4.093 0.389-5.015-1.336l-0.139-0.261c-0.923-1.726-0.173-3.925 1.675-4.912l1.951-1.043c1.847-0.988 4.093-0.389 5.015 1.336l0.139 0.261c0.923 1.726 0.173 3.925-1.674 4.912l-1.951 1.043z"></path>
<path fill="#f5cdd5" d="M44.398 28.24c0 0 0.188 2.768 0 3.161-0.524 1.095-4.415 4.713-4.662 4.583-0.458-0.241 0-4.188 0-4.188l4.662-3.556z"></path>
<path fill="#174a8b" d="M39.754 36.164h-0.045l-0.055-0.024c-0.492-0.259-0.27-2.846-0.093-4.365l0.009-0.075 4.985-3.802 0.022 0.329c0.032 0.47 0.182 2.835-0.017 3.249-0.462 0.964-4.279 4.687-4.806 4.687zM39.905 31.891c-0.187 1.643-0.272 3.502-0.106 3.891 0.664-0.359 3.97-3.481 4.439-4.458 0.097-0.201 0.078-1.495 0.004-2.741l-4.337 3.308z"></path>
<path fill="#f5cdd5" d="M30.979 26.965c-0.361 0.346 3.15 0.264 3.15 0.264l4.956-4.262c0 0-3.489-0.841-4.173-0.35-0.902 0.646-3.709 4.133-3.933 4.348z"></path>
<path fill="#174a8b" d="M33.284 27.416c-2.364 0-2.435-0.178-2.493-0.321-0.036-0.088-0.011-0.184 0.065-0.257 0.051-0.049 0.305-0.351 0.599-0.701 0.932-1.108 2.666-3.171 3.353-3.664 0.175-0.126 0.478-0.187 0.924-0.187 1.269 0 3.308 0.488 3.394 0.508l0.338 0.082-5.267 4.53-0.063 0.001c0 0-0.365 0.009-0.849 0.009zM31.226 26.956c0.217 0.043 0.752 0.104 2.057 0.104 0.36 0 0.654-0.005 0.778-0.007l4.64-3.991c-0.642-0.14-2.044-0.421-2.969-0.421-0.478 0-0.655 0.075-0.717 0.12-0.651 0.466-2.367 2.507-3.289 3.603-0.237 0.282-0.398 0.473-0.5 0.591z"></path>
<path fill="#f5cdd5" d="M32.735 28.892c-0.024 0.772 4.322 4.581 5.452 4.978 0.856 0.3 6.606-4.756 8.296-6.282 2.844-2.567 4.622-7.23 4.859-11.259 0 0-6.134-1.544-12.563 5.096-1.671 1.725-6.005 6.207-6.044 7.467z"></path>
<path fill="#174a8b" d="M38.273 34.061v0c-0.053 0-0.101-0.008-0.145-0.023-1.075-0.377-5.6-4.231-5.571-5.151 0.037-1.181 3.276-4.674 6.094-7.585 4.471-4.617 8.825-5.306 11.024-5.306 1.059 0 1.684 0.155 1.71 0.161l0.143 0.036-0.009 0.147c-0.258 4.386-2.234 8.96-4.918 11.381-1.172 1.059-7.087 6.341-8.329 6.341zM49.675 16.352c-2.142 0-6.389 0.675-10.768 5.198-1.473 1.522-5.957 6.154-5.995 7.349-0.019 0.623 4.167 4.395 5.333 4.805l0.027 0.003c0.801 0 4.756-3.239 8.091-6.249 2.587-2.335 4.502-6.733 4.791-10.984-0.236-0.045-0.754-0.121-1.48-0.121z"></path>
<path fill="#fff" d="M42.385 18.761c0 0 6.484-2.273 7.037-1.404s-0.914 6.58-3.696 10.559c0 0 4.521-3.191 5.409-11.547 0 0-4.912-0.492-8.75 2.392z"></path>
<path fill="#174a8b" d="M31.453 35.099c-0.126 0.135-0.35 0.13-0.501-0.010v0c-0.151-0.141-0.171-0.365-0.045-0.5l2.559-2.745c0.126-0.135 0.351-0.131 0.502 0.009v0c0.151 0.141 0.17 0.365 0.044 0.501l-2.559 2.745z"></path>
<path fill="#174a8b" d="M33.78 37.783c-0.125 0.135-0.35 0.131-0.501-0.010v0c-0.15-0.141-0.171-0.365-0.045-0.501l2.559-2.745c0.126-0.135 0.351-0.131 0.502 0.010v0c0.151 0.141 0.17 0.365 0.045 0.5l-2.56 2.745z"></path>
<path fill="#174a8b" d="M31.285 37.483c-0.126 0.135-0.351 0.13-0.502-0.010v0c-0.15-0.14-0.171-0.365-0.045-0.5l2.559-2.745c0.127-0.136 0.352-0.131 0.503 0.009v0c0.15 0.141 0.17 0.365 0.044 0.501l-2.559 2.745z"></path>
<path fill="#174a8b" d="M28.772 43.153c-0.126 0.135-0.35 0.131-0.501-0.010v0c-0.15-0.141-0.171-0.365-0.045-0.5l2.559-2.746c0.127-0.135 0.351-0.131 0.503 0.010v0c0.15 0.141 0.171 0.365 0.044 0.5l-2.559 2.746z"></path>
<path fill="#174a8b" d="M26.111 37.172c-0.126 0.136-0.35 0.13-0.502-0.010v0c-0.15-0.141-0.171-0.365-0.045-0.5l2.559-2.745c0.126-0.135 0.351-0.131 0.502 0.009v0c0.15 0.141 0.171 0.365 0.044 0.501l-2.559 2.745z"></path>
<path fill="#174a8b" d="M24.601 42.575c-0.13 0.131-0.355 0.118-0.5-0.028v0c-0.146-0.147-0.158-0.371-0.027-0.501l2.653-2.655c0.131-0.131 0.356-0.119 0.501 0.027v0c0.146 0.146 0.158 0.371 0.027 0.502l-2.653 2.655z"></path>
<path fill="#f5cdd5" d="M47.54 20.568c0 0.851-0.703 1.541-1.571 1.541s-1.571-0.69-1.571-1.541c0-0.851 0.703-1.541 1.571-1.541s1.571 0.69 1.571 1.541z"></path>
<path fill="#174a8b" d="M45.969 22.227c-0.932 0-1.689-0.744-1.689-1.659s0.758-1.659 1.689-1.659 1.689 0.744 1.689 1.659-0.758 1.659-1.689 1.659zM45.969 19.145c-0.8 0-1.452 0.638-1.452 1.422s0.651 1.422 1.452 1.422 1.452-0.638 1.452-1.422-0.652-1.422-1.452-1.422z"></path>
<path fill="#fff" d="M46.76 19.361c0 0 0.365 2.338-1.181 2.556 0 0 0.359 0.113 0.766 0 0.503-0.14 1.072-0.567 1.041-1.278-0.010-0.235 0.026-0.933-0.625-1.278z"></path>
</svg>
