<!-- Generated by IcoMoon.io -->
<svg version="1.1" xmlns="http://www.w3.org/2000/svg" width="64" height="64" viewBox="0 0 64 64">
<title>home_tcs_apps_icon</title>
<path fill="#d8e6e4" opacity="0.5" d="M0.963 26.762c-0.733 0.887-0.711 2.015 0.948 4.504s4.267 2.015 5.452 1.422c1.185-0.593 5.333-3.556 7.704-3.911s4.030 0.948 4.978 2.133 2.489 3.2-1.659 5.096-9.719 5.215-7.904 8.461c1.379 2.468 3.23 3.046 6.363 1.257 3.92-2.238 6.163-0.474 6.874 1.659s-0.487 3.227-4.622 7.585c-1.346 1.419-3.324 9.657 4.148 6.637 9.034-3.651 37.215-22.4 37.215-22.4s4.030-1.541 1.067-5.57c-2.050-2.789-4.741-0.711-5.57-0.237s-7.595 6.288-10.904 1.541c-2.726-3.911 2.859-7.407 4.622-8.178 1.478-0.645 7.348-2.607 4.385-6.637s-6.983-0.197-9.007 1.067c-2.422 1.512-5.338 1.324-7.23-1.304-2.133-2.963-2.963-4.267 5.57-8.889 0 0 3.319-1.659 1.304-5.096s-5.096-1.541-7.822 0-29.291 12.862-35.911 20.859z"></path>
<path fill="#d8e6e4" opacity="0.5" d="M59.478 21.101c-1.847 0.988-4.093 0.389-5.015-1.336l-0.139-0.261c-0.923-1.726-0.173-3.925 1.675-4.912l1.951-1.043c1.847-0.988 4.093-0.389 5.015 1.336l0.139 0.261c0.923 1.726 0.173 3.925-1.674 4.912l-1.951 1.043z"></path>
<path fill="#f7fcfc" d="M39.303 45.432c0 0.785-0.613 1.422-1.37 1.422h-15.521c-0.757 0-1.37-0.637-1.37-1.422v-27.339c0-0.786 0.613-1.422 1.37-1.422h15.521c0.757 0 1.37 0.637 1.37 1.422v27.339z"></path>
<path fill="#174a8b" d="M37.934 47.092h-15.521c-0.886 0-1.607-0.744-1.607-1.659v-27.339c0-0.915 0.721-1.659 1.607-1.659h15.521c0.886 0 1.607 0.744 1.607 1.659v27.339c0 0.915-0.721 1.659-1.606 1.659zM22.412 16.908c-0.624 0-1.133 0.532-1.133 1.185v27.339c0 0.654 0.508 1.185 1.133 1.185h15.521c0.624 0 1.133-0.531 1.133-1.185v-27.339c0-0.653-0.508-1.185-1.133-1.185h-15.521z"></path>
<path fill="#daefec" d="M38.311 42.026c0 0.571-0.546 1.035-1.22 1.035h-13.835c-0.674 0-1.22-0.464-1.22-1.035v-19.895c0-0.572 0.546-1.035 1.22-1.035h13.835c0.674 0 1.22 0.464 1.22 1.035v19.895z"></path>
<path fill="#aeded7" d="M28.664 26.913c0 0.523-0.425 0.948-0.948 0.948h-2.311c-0.523 0-0.948-0.425-0.948-0.948v-2.311c0-0.523 0.425-0.948 0.948-0.948h2.311c0.523 0 0.948 0.425 0.948 0.948v2.311z"></path>
<path fill="#174a8b" d="M27.716 28.039h-2.311c-0.621 0-1.126-0.505-1.126-1.126v-2.311c0-0.621 0.505-1.126 1.126-1.126h2.311c0.621 0 1.126 0.505 1.126 1.126v2.311c0 0.621-0.505 1.126-1.126 1.126zM25.405 23.832c-0.425 0-0.77 0.346-0.77 0.77v2.311c0 0.425 0.346 0.77 0.77 0.77h2.311c0.425 0 0.77-0.346 0.77-0.77v-2.311c0-0.425-0.346-0.77-0.77-0.77h-2.311z"></path>
<path fill="#aeded7" d="M35.064 26.913c0 0.523-0.425 0.948-0.948 0.948h-2.311c-0.523 0-0.948-0.425-0.948-0.948v-2.311c0-0.523 0.425-0.948 0.948-0.948h2.311c0.523 0 0.948 0.425 0.948 0.948v2.311z"></path>
<path fill="#174a8b" d="M34.116 28.039h-2.311c-0.621 0-1.126-0.505-1.126-1.126v-2.311c0-0.621 0.505-1.126 1.126-1.126h2.311c0.621 0 1.126 0.505 1.126 1.126v2.311c0 0.621-0.505 1.126-1.126 1.126zM31.805 23.832c-0.425 0-0.77 0.346-0.77 0.77v2.311c0 0.425 0.346 0.77 0.77 0.77h2.311c0.425 0 0.77-0.346 0.77-0.77v-2.311c0-0.425-0.346-0.77-0.77-0.77h-2.311z"></path>
<path fill="#aeded7" d="M28.664 39.713c0 0.524-0.425 0.948-0.948 0.948h-2.311c-0.523 0-0.948-0.424-0.948-0.948v-2.311c0-0.523 0.425-0.948 0.948-0.948h2.311c0.523 0 0.948 0.425 0.948 0.948v2.311z"></path>
<path fill="#174a8b" d="M27.716 40.839h-2.311c-0.621 0-1.126-0.505-1.126-1.126v-2.311c0-0.621 0.505-1.126 1.126-1.126h2.311c0.621 0 1.126 0.505 1.126 1.126v2.311c0 0.621-0.505 1.126-1.126 1.126zM25.405 36.632c-0.425 0-0.77 0.346-0.77 0.77v2.311c0 0.425 0.346 0.77 0.77 0.77h2.311c0.425 0 0.77-0.346 0.77-0.77v-2.311c0-0.425-0.346-0.77-0.77-0.77h-2.311z"></path>
<path fill="#aeded7" d="M35.064 39.713c0 0.524-0.425 0.948-0.948 0.948h-2.311c-0.523 0-0.948-0.424-0.948-0.948v-2.311c0-0.523 0.425-0.948 0.948-0.948h2.311c0.523 0 0.948 0.425 0.948 0.948v2.311z"></path>
<path fill="#174a8b" d="M34.116 40.839h-2.311c-0.621 0-1.126-0.505-1.126-1.126v-2.311c0-0.621 0.505-1.126 1.126-1.126h2.311c0.621 0 1.126 0.505 1.126 1.126v2.311c0 0.621-0.505 1.126-1.126 1.126zM31.805 36.632c-0.425 0-0.77 0.346-0.77 0.77v2.311c0 0.425 0.346 0.77 0.77 0.77h2.311c0.425 0 0.77-0.346 0.77-0.77v-2.311c0-0.425-0.346-0.77-0.77-0.77h-2.311z"></path>
<path fill="#aeded7" d="M28.664 33.55c0 0.524-0.425 0.948-0.948 0.948h-2.311c-0.523 0-0.948-0.424-0.948-0.948v-2.311c0-0.523 0.425-0.948 0.948-0.948h2.311c0.523 0 0.948 0.425 0.948 0.948v2.311z"></path>
<path fill="#174a8b" d="M27.716 34.676h-2.311c-0.621 0-1.126-0.505-1.126-1.126v-2.311c0-0.621 0.505-1.126 1.126-1.126h2.311c0.621 0 1.126 0.505 1.126 1.126v2.311c0 0.621-0.505 1.126-1.126 1.126zM25.405 30.469c-0.425 0-0.77 0.346-0.77 0.77v2.311c0 0.425 0.346 0.77 0.77 0.77h2.311c0.425 0 0.77-0.346 0.77-0.77v-2.311c0-0.425-0.346-0.77-0.77-0.77h-2.311z"></path>
<path fill="#aeded7" d="M35.643 34.735c0 0.524-0.425 0.948-0.948 0.948h-2.311c-0.523 0-0.948-0.424-0.948-0.948v-2.311c0-0.523 0.425-0.948 0.948-0.948h2.311c0.523 0 0.948 0.425 0.948 0.948v2.311z"></path>
<path fill="#174a8b" d="M34.695 35.861h-2.311c-0.621 0-1.126-0.505-1.126-1.126v-2.311c0-0.621 0.505-1.126 1.126-1.126h2.311c0.621 0 1.126 0.505 1.126 1.126v2.311c0 0.621-0.505 1.126-1.126 1.126zM32.384 31.654c-0.425 0-0.77 0.346-0.77 0.77v2.311c0 0.425 0.346 0.77 0.77 0.77h2.311c0.425 0 0.77-0.346 0.77-0.77v-2.311c0-0.425-0.346-0.77-0.77-0.77h-2.311z"></path>
<path fill="#aeded7" d="M39.989 38.18c0.258 0.25 0.264 0.662 0.013 0.92l-0.34 0.35c-0.25 0.258-0.662 0.264-0.92 0.013l-2.776-2.696c-0.258-0.25-0.264-0.662-0.014-0.92l0.34-0.35c0.25-0.257 0.662-0.264 0.92-0.013l2.776 2.696z"></path>
<path fill="#174a8b" d="M39.196 39.884c-0.232 0-0.452-0.089-0.619-0.251l-2.776-2.696c-0.351-0.341-0.359-0.904-0.019-1.254l0.34-0.35c0.331-0.341 0.916-0.348 1.256-0.018l2.776 2.696c0.17 0.165 0.266 0.386 0.269 0.623s-0.086 0.462-0.251 0.631l-0.339 0.35c-0.168 0.174-0.395 0.269-0.637 0.269zM36.759 35.537c-0.113 0-0.218 0.045-0.297 0.126l-0.339 0.35c-0.159 0.164-0.155 0.426 0.009 0.585l2.776 2.696c0.158 0.155 0.431 0.149 0.584-0.009l0.34-0.35c0.077-0.080 0.119-0.184 0.117-0.294s-0.046-0.213-0.126-0.291l-2.776-2.696c-0.078-0.075-0.18-0.117-0.288-0.117z"></path>
<path fill="#aeded7" d="M37.644 32.553c0 2.587-2.097 4.684-4.684 4.684s-4.684-2.097-4.684-4.684c0-2.587 2.097-4.684 4.684-4.684s4.684 2.097 4.684 4.684z"></path>
<path fill="#174a8b" d="M32.961 37.414c-2.68 0-4.862-2.181-4.862-4.862s2.181-4.862 4.862-4.862 4.862 2.181 4.862 4.862c0 2.68-2.181 4.862-4.862 4.862zM32.961 28.046c-2.485 0-4.506 2.021-4.506 4.507s2.021 4.506 4.506 4.506 4.506-2.021 4.506-4.506c0-2.485-2.021-4.507-4.506-4.507z"></path>
<path fill="#44bfb1" d="M35.243 33.648c0 0.568-0.46 1.029-1.029 1.029h-2.507c-0.568 0-1.029-0.46-1.029-1.029v-2.507c0-0.568 0.46-1.029 1.029-1.029h2.507c0.568 0 1.029 0.461 1.029 1.029v2.507z"></path>
<path fill="#174a8b" d="M34.214 34.854h-2.507c-0.665 0-1.206-0.541-1.206-1.206v-2.507c0-0.665 0.541-1.206 1.206-1.206h2.507c0.665 0 1.206 0.541 1.206 1.206v2.507c0 0.666-0.541 1.206-1.206 1.206zM31.707 30.29c-0.469 0-0.851 0.382-0.851 0.851v2.507c0 0.469 0.382 0.851 0.851 0.851h2.507c0.469 0 0.851-0.382 0.851-0.851v-2.507c0-0.469-0.382-0.851-0.851-0.851h-2.507z"></path>
<path fill="#174a8b" d="M28.499 18.568h3.348v0.593h-3.348v-0.593z"></path>
<path fill="#aeded7" d="M31.003 44.76c0 0.458-0.371 0.83-0.83 0.83s-0.83-0.371-0.83-0.83c0-0.458 0.371-0.83 0.83-0.83s0.83 0.371 0.83 0.83z"></path>
<path fill="#174a8b" d="M30.173 45.708c-0.523 0-0.948-0.425-0.948-0.948s0.425-0.948 0.948-0.948 0.948 0.425 0.948 0.948-0.425 0.948-0.948 0.948zM30.173 44.049c-0.392 0-0.711 0.319-0.711 0.711s0.319 0.711 0.711 0.711 0.711-0.319 0.711-0.711-0.319-0.711-0.711-0.711z"></path>
<path fill="#fff" d="M33.087 28.099c0 0 3.924 0.518 4.127 4.078 0.244 4.277-4.127 4.88-4.127 4.88s4.684-0.462 4.354-4.978c-0.257-3.516-3.868-4.039-4.354-3.98z"></path>
</svg>
