<!-- Generated by IcoMoon.io -->
<svg version="1.1" xmlns="http://www.w3.org/2000/svg" width="64" height="64" viewBox="0 0 64 64">
<title>interactive_user_interface_icon</title>
<path fill="#d8e6e4" opacity="0.5" d="M0.963 26.762c-0.733 0.887-0.711 2.015 0.948 4.504s4.267 2.015 5.452 1.422c1.185-0.593 5.333-3.556 7.704-3.911s4.030 0.948 4.978 2.133 2.489 3.2-1.659 5.096-9.719 5.215-7.904 8.461c1.379 2.468 3.23 3.046 6.363 1.257 3.92-2.238 6.163-0.474 6.874 1.659s-0.487 3.227-4.622 7.585c-1.346 1.419-3.324 9.657 4.148 6.637 9.034-3.651 37.215-22.4 37.215-22.4s4.030-1.541 1.067-5.57c-2.050-2.789-4.741-0.711-5.57-0.237s-7.595 6.288-10.904 1.541c-2.726-3.911 2.859-7.407 4.622-8.178 1.478-0.645 7.348-2.607 4.385-6.637s-6.983-0.197-9.007 1.067c-2.422 1.512-5.338 1.324-7.23-1.304-2.133-2.963-2.963-4.267 5.57-8.889 0 0 3.319-1.659 1.304-5.096s-5.096-1.541-7.822 0-29.291 12.862-35.911 20.859z"></path>
<path fill="#d8e6e4" opacity="0.5" d="M59.478 21.101c-1.847 0.988-4.093 0.389-5.015-1.336l-0.139-0.261c-0.923-1.726-0.173-3.925 1.675-4.912l1.951-1.043c1.847-0.988 4.093-0.389 5.015 1.336l0.139 0.261c0.923 1.726 0.173 3.925-1.674 4.912l-1.951 1.043z"></path>
<path fill="#f7fcfc" d="M39.167 45.669c0 0.785-0.613 1.422-1.37 1.422h-15.521c-0.757 0-1.37-0.637-1.37-1.422v-27.339c0-0.786 0.613-1.422 1.37-1.422h15.521c0.757 0 1.37 0.637 1.37 1.422v27.339z"></path>
<path fill="#174a8b" d="M37.798 47.329h-15.521c-0.886 0-1.607-0.744-1.607-1.659v-27.339c0-0.915 0.721-1.659 1.607-1.659h15.521c0.885 0 1.607 0.744 1.607 1.659v27.339c0 0.915-0.721 1.659-1.607 1.659zM22.277 17.145c-0.624 0-1.133 0.532-1.133 1.185v27.339c0 0.654 0.508 1.185 1.133 1.185h15.521c0.624 0 1.133-0.531 1.133-1.185v-27.339c0-0.653-0.508-1.185-1.133-1.185h-15.521z"></path>
<path fill="#f9eacf" d="M38.177 42.263c0 0.571-0.546 1.035-1.22 1.035h-13.835c-0.674 0-1.22-0.464-1.22-1.035v-19.895c0-0.572 0.546-1.035 1.22-1.035h13.835c0.674 0 1.22 0.464 1.22 1.035v19.895z"></path>
<path fill="#fff" d="M37.222 29.994c0 0.523-0.425 0.948-0.948 0.948h-12.267c-0.523 0-0.948-0.425-0.948-0.948v-2.311c0-0.523 0.425-0.948 0.948-0.948h12.267c0.523 0 0.948 0.425 0.948 0.948v2.311z"></path>
<path fill="#aeded7" d="M30.867 44.997c0 0.458-0.371 0.83-0.83 0.83s-0.83-0.371-0.83-0.83c0-0.458 0.371-0.83 0.83-0.83s0.83 0.371 0.83 0.83z"></path>
<path fill="#174a8b" d="M30.037 45.945c-0.523 0-0.948-0.425-0.948-0.948s0.425-0.948 0.948-0.948 0.948 0.425 0.948 0.948-0.425 0.948-0.948 0.948zM30.037 44.286c-0.392 0-0.711 0.319-0.711 0.711s0.319 0.711 0.711 0.711 0.711-0.319 0.711-0.711-0.319-0.711-0.711-0.711z"></path>
<path fill="#174a8b" d="M31.704 19.366c0 0.131-0.107 0.237-0.237 0.237h-2.861c-0.131 0-0.237-0.106-0.237-0.237v0c0-0.131 0.106-0.237 0.237-0.237h2.861c0.13 0 0.237 0.106 0.237 0.237v0z"></path>
<path fill="#44bfb1" d="M37.121 29.757c0 0.523-0.425 0.948-0.948 0.948h-12.267c-0.523 0-0.948-0.425-0.948-0.948v-2.311c0-0.523 0.425-0.948 0.948-0.948h12.267c0.523 0 0.948 0.425 0.948 0.948v2.311z"></path>
<path fill="#fff" d="M36.457 31.276c0 1.754-1.354 3.177-3.024 3.177s-3.024-1.422-3.024-3.177c0-1.755 1.354-3.177 3.024-3.177s3.024 1.422 3.024 3.177z"></path>
<path fill="#fff" d="M35.205 37.58c0 0-2.524-0.709-3.496 0-0.681 0.496-0.889 1.541 1.748 2.844s6.042 4.789 10.072 3.545 5.212-5.64 4.204-7.536-1.715-3.457-2.011-3.991c-0.296-0.533-0.783-1.964-2.039-1.611-0.807 0.227-1.323 1.098-1.015 2.155 0 0-0.944-1.807-1.655-1.688s-2.309 0.533-1.243 2.667c0 0-0.771-2.254-2.431-1.542s0.044 2.982 0.474 3.734c0 0-3.141-5.511-3.556-6.044s-0.83-0.889-1.778-0.296-0.889 1.304-0.356 2.311 3.081 5.452 3.081 5.452z"></path>
<path fill="#174a8b" d="M41.788 44.471c-2.399 0-4.509-1.376-6.371-2.589-0.734-0.478-1.427-0.93-2.064-1.244-1.475-0.73-2.255-1.469-2.317-2.197-0.034-0.402 0.155-0.775 0.534-1.052 0.328-0.239 0.825-0.36 1.478-0.36 0.613 0 1.247 0.105 1.68 0.195-0.672-1.176-2.388-4.181-2.814-4.984-0.462-0.873-0.771-1.867 0.44-2.623 0.369-0.231 0.69-0.344 0.981-0.344 0.524 0 0.848 0.359 1.109 0.695 0.179 0.23 0.83 1.313 1.936 3.222 0.109-0.534 0.491-0.824 0.865-0.984 0.245-0.105 0.488-0.158 0.723-0.158 0.502 0 0.905 0.237 1.213 0.539 0.016-0.228 0.077-0.435 0.184-0.62 0.267-0.465 0.808-0.769 1.609-0.902 0.512-0.086 1.069 0.513 1.447 1.057 0.039-0.147 0.098-0.29 0.178-0.428 0.281-0.484 0.747-0.782 1.084-0.863 0.819-0.198 1.59 0.316 2.246 1.495 0.121 0.219 0.301 0.586 0.548 1.096 0.364 0.743 0.86 1.763 1.464 2.9 0.526 0.991 0.48 2.568-0.118 4.017-0.451 1.093-1.599 3.046-4.225 3.858-0.591 0.182-1.2 0.275-1.811 0.275zM33.047 37.503c-0.542 0-0.957 0.093-1.198 0.269-0.17 0.124-0.367 0.333-0.342 0.628 0.027 0.311 0.329 0.959 2.055 1.813 0.663 0.328 1.367 0.786 2.113 1.272 1.807 1.177 3.855 2.512 6.113 2.512 0.564 0 1.126-0.086 1.671-0.254 2.44-0.754 3.508-2.569 3.927-3.585 0.547-1.324 0.601-2.742 0.138-3.614-0.608-1.144-1.107-2.167-1.471-2.915-0.236-0.484-0.422-0.865-0.538-1.072-0.537-0.967-1.122-1.409-1.72-1.265-0.239 0.057-0.586 0.296-0.785 0.64-0.177 0.306-0.215 0.638-0.113 0.987 0.034 0.117-0.027 0.241-0.139 0.286-0.111 0.045-0.242-0.002-0.299-0.11-0.34-0.65-0.993-1.566-1.377-1.566-0.682 0.111-1.112 0.337-1.305 0.673-0.179 0.311-0.167 0.738 0.035 1.27 0.116 0.223 0.18 0.407 0.182 0.415 0.041 0.118-0.018 0.247-0.132 0.295s-0.248-0.001-0.304-0.112c-0.075-0.152-0.138-0.295-0.19-0.43-0.209-0.403-0.684-1.119-1.398-1.119-0.171 0-0.351 0.041-0.537 0.119-0.379 0.163-0.842 0.498-0.492 1.528 0.594 1.022 1.078 1.871 1.078 1.871 0.062 0.109 0.028 0.248-0.077 0.317s-0.267 0.055-0.321-0.058c-0.258-0.551-0.732-1.376-1.088-2.047-1.367-2.363-2.276-3.751-2.463-3.992-0.428-0.551-0.763-0.679-1.465-0.241-0.747 0.467-0.816 0.971-0.272 1.999 0.525 0.992 3.052 5.401 3.078 5.445 0.048 0.083 0.041 0.188-0.019 0.264-0.059 0.075-0.16 0.109-0.251 0.083-0.011-0.005-1.105-0.308-2.094-0.308z"></path>
<path fill="#174a8b" d="M32.173 34.399c-0.060 0-0.12-0.023-0.166-0.069-0.089-0.088-2.181-2.173-1.964-4.123 0.088-0.786 0.534-1.433 1.327-1.925 1.113-0.69 2.133-0.837 3.030-0.435 1.507 0.674 2.163 2.673 2.289 3.387 0.023 0.129-0.063 0.252-0.192 0.274-0.127 0.022-0.252-0.063-0.275-0.192-0.106-0.602-0.704-2.45-2.016-3.036-0.745-0.334-1.616-0.197-2.587 0.405-0.663 0.411-1.035 0.941-1.106 1.575-0.192 1.723 1.805 3.713 1.825 3.732 0.093 0.092 0.094 0.243 0.003 0.335-0.046 0.048-0.108 0.072-0.169 0.072z"></path>
</svg>
