<!-- Generated by IcoMoon.io -->
<svg version="1.1" xmlns="http://www.w3.org/2000/svg" width="64" height="64" viewBox="0 0 64 64">
<title>multiple_device_policy</title>
<path fill="#d8e6e4" opacity="0.5" d="M0.963 26.762c-0.733 0.887-0.711 2.015 0.948 4.504s4.267 2.015 5.452 1.422c1.185-0.593 5.333-3.556 7.704-3.911s4.030 0.948 4.978 2.133 2.489 3.2-1.659 5.096-9.719 5.215-7.904 8.461c1.379 2.468 3.23 3.046 6.363 1.257 3.92-2.238 6.163-0.474 6.874 1.659s-0.487 3.227-4.622 7.585c-1.346 1.419-3.324 9.657 4.148 6.637 9.034-3.651 37.215-22.4 37.215-22.4s4.030-1.541 1.067-5.57c-2.050-2.789-4.741-0.711-5.57-0.237s-7.595 6.288-10.904 1.541c-2.726-3.911 2.859-7.407 4.622-8.178 1.478-0.645 7.348-2.607 4.385-6.637s-6.983-0.197-9.007 1.067c-2.422 1.512-5.338 1.324-7.23-1.304-2.133-2.963-2.963-4.267 5.57-8.889 0 0 3.319-1.659 1.304-5.096s-5.096-1.541-7.822 0-29.291 12.862-35.911 20.859z"></path>
<path fill="#d8e6e4" opacity="0.5" d="M59.478 21.101c-1.847 0.988-4.093 0.389-5.015-1.336l-0.139-0.261c-0.923-1.726-0.173-3.925 1.675-4.912l1.951-1.043c1.847-0.988 4.093-0.389 5.015 1.336l0.139 0.261c0.923 1.726 0.173 3.925-1.674 4.912l-1.951 1.043z"></path>
<path fill="#f7fcfc" d="M42.566 41.744c0 0.785-0.613 1.422-1.37 1.422h-20.735c-0.757 0-1.37-0.637-1.37-1.422v-27.339c0-0.786 0.613-1.422 1.37-1.422h20.735c0.757 0 1.37 0.637 1.37 1.422v27.339z"></path>
<path fill="#174a8b" d="M41.197 43.403h-20.735c-0.886 0-1.607-0.744-1.607-1.659v-27.339c0-0.915 0.721-1.659 1.607-1.659h20.735c0.886 0 1.607 0.744 1.607 1.659v27.339c0 0.914-0.721 1.659-1.607 1.659zM20.461 13.22c-0.624 0-1.133 0.532-1.133 1.185v27.339c0 0.654 0.508 1.185 1.133 1.185h20.735c0.624 0 1.133-0.531 1.133-1.185v-27.339c0-0.653-0.508-1.185-1.133-1.185h-20.735z"></path>
<path fill="#fff" d="M41.103 36.915c0 0.571-0.546 1.035-1.22 1.035h-18.102c-0.674 0-1.22-0.464-1.22-1.035v-19.895c0-0.572 0.546-1.035 1.22-1.035h18.102c0.674 0 1.22 0.464 1.22 1.035v19.895z"></path>
<path fill="#e7f1d5" d="M41.103 36.441c0 0.571-0.546 1.035-1.22 1.035h-18.102c-0.674 0-1.22-0.464-1.22-1.035v-19.895c0-0.572 0.546-1.035 1.22-1.035h18.102c0.674 0 1.22 0.464 1.22 1.035v19.895z"></path>
<path fill="#f7fcfc" d="M22.449 51.519c0 0.785-0.613 1.422-1.37 1.422h-13.624c-0.757 0-1.37-0.637-1.37-1.422v-27.339c0-0.786 0.613-1.422 1.37-1.422h13.624c0.757 0 1.37 0.637 1.37 1.422v27.339z"></path>
<path fill="#174a8b" d="M21.080 53.178h-13.624c-0.886 0-1.607-0.744-1.607-1.659v-27.339c0-0.915 0.721-1.659 1.607-1.659h13.624c0.886 0 1.607 0.744 1.607 1.659v27.339c0 0.915-0.721 1.659-1.607 1.659zM7.455 22.994c-0.624 0-1.133 0.532-1.133 1.185v27.339c0 0.654 0.508 1.185 1.133 1.185h13.624c0.624 0 1.133-0.531 1.133-1.185v-27.339c0-0.653-0.508-1.185-1.133-1.185h-13.624z"></path>
<path fill="#fff" d="M20.508 48.744c0 0.571-0.546 1.035-1.22 1.035h-10.043c-0.674 0-1.22-0.464-1.22-1.035v-19.895c0-0.572 0.546-1.035 1.22-1.035h10.043c0.674 0 1.22 0.464 1.22 1.035v19.895z"></path>
<path fill="#e7f1d5" d="M20.508 48.27c0 0.571-0.546 1.035-1.22 1.035h-10.043c-0.674 0-1.22-0.464-1.22-1.035v-19.895c0-0.572 0.546-1.035 1.22-1.035h10.043c0.674 0 1.22 0.464 1.22 1.035v19.895z"></path>
<path fill="#aeded7" d="M15.097 50.846c0 0.458-0.371 0.83-0.83 0.83s-0.83-0.371-0.83-0.83c0-0.458 0.371-0.83 0.83-0.83s0.83 0.371 0.83 0.83z"></path>
<path fill="#174a8b" d="M14.268 51.794c-0.523 0-0.948-0.425-0.948-0.948s0.425-0.948 0.948-0.948 0.948 0.425 0.948 0.948-0.425 0.948-0.948 0.948zM14.268 50.135c-0.392 0-0.711 0.319-0.711 0.711s0.319 0.711 0.711 0.711 0.711-0.319 0.711-0.711-0.319-0.711-0.711-0.711z"></path>
<path fill="#174a8b" d="M15.935 25.294c0 0.131-0.107 0.237-0.237 0.237h-2.861c-0.131 0-0.237-0.106-0.237-0.237v0c0-0.131 0.106-0.237 0.237-0.237h2.861c0.131 0 0.237 0.106 0.237 0.237v0z"></path>
<path fill="#f7fcfc" d="M55.106 51.834c0 0.785-0.613 1.422-1.37 1.422h-15.521c-0.757 0-1.37-0.637-1.37-1.422v-27.339c0-0.786 0.613-1.422 1.37-1.422h15.521c0.757 0 1.37 0.637 1.37 1.422v27.339z"></path>
<path fill="#174a8b" d="M53.737 53.494h-15.521c-0.886 0-1.607-0.744-1.607-1.659v-27.339c0-0.915 0.721-1.659 1.607-1.659h15.521c0.886 0 1.607 0.744 1.607 1.659v27.339c0 0.915-0.721 1.66-1.606 1.66zM38.216 23.31c-0.624 0-1.133 0.532-1.133 1.185v27.339c0 0.654 0.508 1.185 1.133 1.185h15.521c0.624 0 1.133-0.531 1.133-1.185v-27.339c0-0.653-0.508-1.185-1.133-1.185h-15.521z"></path>
<path fill="#fff" d="M54.117 48.902c0 0.571-0.546 1.035-1.22 1.035h-13.835c-0.674 0-1.22-0.464-1.22-1.035v-19.895c0-0.572 0.546-1.035 1.22-1.035h13.835c0.674 0 1.22 0.464 1.22 1.035v19.895z"></path>
<path fill="#e7f1d5" d="M54.117 48.428c0 0.571-0.546 1.035-1.22 1.035h-13.835c-0.674 0-1.22-0.464-1.22-1.035v-19.895c0-0.572 0.546-1.035 1.22-1.035h13.835c0.674 0 1.22 0.464 1.22 1.035v19.895z"></path>
<path fill="#aeded7" d="M46.809 51.162c0 0.458-0.371 0.83-0.83 0.83s-0.83-0.371-0.83-0.83c0-0.458 0.371-0.83 0.83-0.83s0.83 0.371 0.83 0.83z"></path>
<path fill="#174a8b" d="M45.979 52.11c-0.523 0-0.948-0.425-0.948-0.948s0.425-0.948 0.948-0.948 0.948 0.425 0.948 0.948-0.425 0.948-0.948 0.948zM45.979 50.451c-0.392 0-0.711 0.319-0.711 0.711s0.319 0.711 0.711 0.711 0.711-0.319 0.711-0.711-0.319-0.711-0.711-0.711z"></path>
<path fill="#174a8b" d="M47.644 25.531c0 0.131-0.107 0.237-0.237 0.237h-2.861c-0.131 0-0.237-0.106-0.237-0.237v0c0-0.131 0.106-0.237 0.237-0.237h2.861c0.13 0 0.237 0.106 0.237 0.237v0z"></path>
<path fill="#aeded7" d="M31.658 39.837c0 0.458-0.371 0.83-0.83 0.83s-0.83-0.371-0.83-0.83c0-0.458 0.371-0.83 0.83-0.83s0.83 0.371 0.83 0.83z"></path>
<path fill="#174a8b" d="M30.829 40.785c-0.523 0-0.948-0.425-0.948-0.948s0.425-0.948 0.948-0.948 0.948 0.425 0.948 0.948-0.425 0.948-0.948 0.948zM30.829 39.126c-0.392 0-0.711 0.319-0.711 0.711s0.319 0.711 0.711 0.711 0.711-0.319 0.711-0.711-0.319-0.711-0.711-0.711z"></path>
<path fill="#fff" d="M47.077 34.758l0.089-0.134 0.088-0.131 0.197-0.296c0.024-0.036 0.014-0.086-0.021-0.11-0.037-0.024-0.086-0.014-0.11 0.022l-0.391 0.586c-0.286-0.111-0.605-0.173-0.942-0.173s-0.656 0.063-0.942 0.173l-0.089-0.135-0.301-0.451c-0.024-0.036-0.073-0.046-0.109-0.022s-0.046 0.073-0.022 0.11l0.197 0.296 0.088 0.132 0.089 0.134c-0.672 0.313-1.127 0.905-1.127 1.585h4.434c-0.002-0.679-0.456-1.271-1.129-1.585zM45.037 35.709c-0.131 0-0.238-0.106-0.238-0.237s0.107-0.237 0.238-0.237c0.131 0 0.237 0.106 0.237 0.237s-0.107 0.237-0.237 0.237zM46.937 35.709c-0.131 0-0.237-0.106-0.237-0.237s0.107-0.237 0.237-0.237c0.131 0 0.238 0.106 0.238 0.237s-0.107 0.237-0.238 0.237z"></path>
<path fill="#fff" d="M43.803 36.66h-0.034v3.484c0 0.276 0.225 0.502 0.502 0.502h0.362c-0.012 0.042-0.019 0.086-0.019 0.132v1.004c0 0.262 0.213 0.475 0.475 0.475s0.475-0.213 0.475-0.475v-1.004c0-0.046-0.007-0.090-0.019-0.132h0.882c-0.012 0.042-0.019 0.086-0.019 0.132v1.004c0 0.262 0.212 0.475 0.475 0.475s0.475-0.213 0.475-0.475v-1.004c0-0.046-0.007-0.090-0.019-0.132h0.362c0.276 0 0.502-0.225 0.502-0.502v-3.484h-4.401z"></path>
<path fill="#fff" d="M42.977 36.66c-0.263 0-0.475 0.212-0.475 0.475v2.032c0 0.262 0.212 0.475 0.475 0.475s0.475-0.213 0.475-0.475v-2.032c0-0.263-0.212-0.475-0.475-0.475z"></path>
<path fill="#fff" d="M48.996 36.66c-0.263 0-0.475 0.212-0.475 0.475v2.032c0 0.262 0.212 0.475 0.475 0.475s0.475-0.213 0.475-0.475v-2.032c0-0.263-0.213-0.475-0.475-0.475z"></path>
<path fill="#a4bcb9" d="M47.077 34.583l0.089-0.134 0.088-0.131 0.197-0.296c0.024-0.036 0.014-0.086-0.021-0.11-0.037-0.024-0.086-0.014-0.11 0.022l-0.391 0.586c-0.286-0.111-0.605-0.173-0.942-0.173s-0.656 0.063-0.942 0.173l-0.089-0.135-0.301-0.451c-0.024-0.036-0.073-0.046-0.109-0.022s-0.046 0.073-0.022 0.11l0.197 0.296 0.088 0.132 0.089 0.134c-0.672 0.313-1.127 0.905-1.127 1.585h4.434c-0.002-0.679-0.456-1.272-1.129-1.585zM45.037 35.534c-0.131 0-0.238-0.106-0.238-0.237s0.107-0.237 0.238-0.237c0.131 0 0.237 0.106 0.237 0.237s-0.107 0.237-0.237 0.237zM46.937 35.534c-0.131 0-0.237-0.106-0.237-0.237s0.107-0.237 0.237-0.237c0.131 0 0.238 0.106 0.238 0.237s-0.107 0.237-0.238 0.237z"></path>
<path fill="#a4bcb9" d="M43.803 36.485h-0.034v3.484c0 0.276 0.225 0.502 0.502 0.502h0.362c-0.012 0.042-0.019 0.086-0.019 0.132v1.004c0 0.262 0.213 0.475 0.475 0.475s0.475-0.213 0.475-0.475v-1.004c0-0.046-0.007-0.090-0.019-0.132h0.882c-0.012 0.042-0.019 0.086-0.019 0.132v1.004c0 0.262 0.212 0.475 0.475 0.475s0.475-0.213 0.475-0.475v-1.004c0-0.046-0.007-0.090-0.019-0.132h0.362c0.276 0 0.502-0.225 0.502-0.502v-3.484h-4.401z"></path>
<path fill="#a4bcb9" d="M42.977 36.485c-0.263 0-0.475 0.212-0.475 0.475v2.032c0 0.262 0.212 0.475 0.475 0.475s0.475-0.213 0.475-0.475v-2.032c0-0.263-0.212-0.475-0.475-0.475z"></path>
<path fill="#a4bcb9" d="M48.996 36.485c-0.263 0-0.475 0.212-0.475 0.475v2.032c0 0.262 0.212 0.475 0.475 0.475s0.475-0.213 0.475-0.475v-2.032c0-0.263-0.213-0.475-0.475-0.475z"></path>
<path fill="#fff" d="M16.595 38.748c-0.011-1.080 0.881-1.599 0.921-1.625-0.502-0.733-1.282-0.834-1.56-0.845-0.664-0.068-1.296 0.392-1.633 0.392s-0.857-0.382-1.408-0.372c-0.724 0.011-1.392 0.421-1.765 1.070-0.753 1.305-0.193 3.239 0.541 4.298 0.358 0.518 0.785 1.1 1.346 1.079 0.54-0.021 0.744-0.35 1.398-0.35s0.837 0.35 1.409 0.339c0.581-0.010 0.95-0.528 1.305-1.047 0.412-0.602 0.581-1.184 0.591-1.214-0.012-0.005-1.133-0.435-1.144-1.725z"></path>
<path fill="#fff" d="M15.52 35.577c0.298-0.361 0.499-0.863 0.445-1.362-0.429 0.018-0.949 0.285-1.257 0.646-0.276 0.32-0.517 0.83-0.453 1.32 0.478 0.037 0.967-0.243 1.265-0.603z"></path>
<path fill="#a4bcb9" d="M16.595 38.591c-0.011-1.080 0.881-1.599 0.921-1.625-0.502-0.733-1.282-0.834-1.56-0.845-0.664-0.068-1.296 0.392-1.633 0.392s-0.857-0.382-1.408-0.372c-0.724 0.011-1.392 0.421-1.765 1.070-0.753 1.305-0.193 3.239 0.541 4.298 0.358 0.518 0.785 1.1 1.346 1.079 0.54-0.021 0.744-0.35 1.398-0.35s0.837 0.35 1.409 0.339c0.581-0.010 0.95-0.528 1.305-1.047 0.412-0.602 0.581-1.184 0.591-1.214-0.012-0.005-1.133-0.435-1.144-1.725z"></path>
<path fill="#a4bcb9" d="M15.52 35.419c0.298-0.361 0.499-0.863 0.445-1.362-0.429 0.018-0.949 0.285-1.257 0.646-0.276 0.32-0.517 0.83-0.453 1.32 0.478 0.037 0.967-0.243 1.265-0.603z"></path>
</svg>
