<?xml version="1.0" encoding="utf-8"?>
<!-- Generator: Adobe Illustrator 16.0.0, SVG Export Plug-In . SVG Version: 6.00 Build 0)  -->
<!DOCTYPE svg PUBLIC "-//W3C//DTD SVG 1.1//EN" "http://www.w3.org/Graphics/SVG/1.1/DTD/svg11.dtd">
<svg version="1.1" id="Layer_1" xmlns="http://www.w3.org/2000/svg" xmlns:xlink="http://www.w3.org/1999/xlink" x="0px" y="0px"
	 width="100px" height="100px" viewBox="0 0 100 100" enable-background="new 0 0 100 100" xml:space="preserve">
<g>
	<g id="Layer_1_12_">
		<g>
			<path opacity="0.5" fill="#D8E5E3" enable-background="new    " d="M2.186,41.416c-1.125,1.36-1.091,3.091,1.455,6.909
				c2.545,3.817,6.545,3.091,8.363,2.182c1.818-0.908,8.184-5.454,11.82-6c3.637-0.545,6.182,1.455,7.637,3.273
				c1.454,1.818,3.818,4.909-2.546,7.817c-6.364,2.909-14.91,8.002-12.126,12.981c2.115,3.787,4.955,4.674,9.762,1.928
				c6.014-3.434,9.455-0.727,10.547,2.548c1.091,3.271-0.748,4.948-7.092,11.637c-2.066,2.179-5.1,14.813,6.364,10.183
				c13.858-5.601,57.096-34.365,57.096-34.365s6.183-2.362,1.636-8.547c-3.146-4.279-7.271-1.09-8.545-0.362
				c-1.272,0.728-11.652,9.646-16.729,2.362c-4.186-6,4.385-11.364,7.092-12.545c2.268-0.99,11.271-4.001,6.729-10.183
				c-4.545-6.183-10.713-0.303-13.818,1.637c-3.717,2.32-8.191,2.03-11.092-2c-3.273-4.547-4.547-6.547,8.545-13.639
				c0,0,5.092-2.545,2-7.818c-3.09-5.273-7.818-2.363-12,0C53.1,11.777,12.343,29.145,2.186,41.416z"/>
			<path opacity="0.5" fill="#D8E5E3" enable-background="new    " d="M91.959,32.729c-2.834,1.516-6.279,0.598-7.693-2.05
				l-0.215-0.399c-1.414-2.648-0.264-6.023,2.57-7.537l2.992-1.6c2.834-1.516,6.281-0.598,7.695,2.051l0.213,0.4
				c1.416,2.646,0.266,6.021-2.568,7.535L91.959,32.729z"/>
		</g>
	</g>
	<g>
		<circle fill="#F5CDD5" cx="10.007" cy="28.951" r="0.742"/>
		<circle fill="#F5CDD5" cx="93.35" cy="41.458" r="1.643"/>
		<circle fill="#DAEFEC" cx="24.688" cy="8.92" r="1.643"/>
		<circle fill="#E7F1D5" cx="80.688" cy="5.92" r="1.643"/>
		<circle fill="#E7F1D5" cx="30.688" cy="72.92" r="1.643"/>
		<circle fill="#E7F1D5" cx="61.688" cy="86.92" r="1.643"/>
	</g>
</g>
<g>
	<g enable-background="new    ">
		<path fill="none" stroke="#174A8B" stroke-width="0.25" stroke-miterlimit="10" d="M43.141,49.204
			c0,1.523-0.385,2.721-1.155,3.593s-1.841,1.308-3.212,1.308c-1.401,0-2.482-0.428-3.244-1.285
			c-0.761-0.856-1.142-2.066-1.142-3.628c0-1.549,0.382-2.75,1.146-3.603s1.848-1.278,3.254-1.278c1.367,0,2.434,0.434,3.202,1.302
			C42.756,46.479,43.141,47.677,43.141,49.204z M35.559,49.204c0,1.289,0.274,2.266,0.823,2.932s1.346,0.999,2.392,0.999
			c1.055,0,1.851-0.332,2.389-0.995c0.538-0.664,0.807-1.643,0.807-2.936c0-1.279-0.268-2.251-0.804-2.912
			c-0.536-0.662-1.329-0.992-2.379-0.992c-1.054,0-1.856,0.333-2.405,0.999S35.559,47.933,35.559,49.204z"/>
		<path fill="none" stroke="#174A8B" stroke-width="0.25" stroke-miterlimit="10" d="M51.256,50.401
			c0,1.163-0.293,2.071-0.878,2.724c-0.585,0.653-1.395,0.979-2.427,0.979c-0.638,0-1.204-0.149-1.699-0.449
			c-0.495-0.299-0.876-0.729-1.146-1.288s-0.403-1.215-0.403-1.966c0-1.162,0.291-2.068,0.872-2.717
			c0.581-0.648,1.388-0.973,2.421-0.973c0.998,0,1.791,0.332,2.378,0.995C50.962,48.371,51.256,49.27,51.256,50.401z M45.822,50.401
			c0,0.911,0.182,1.605,0.547,2.083c0.364,0.478,0.9,0.716,1.607,0.716s1.244-0.237,1.611-0.713c0.366-0.475,0.55-1.17,0.55-2.086
			c0-0.906-0.184-1.595-0.55-2.066c-0.367-0.471-0.908-0.706-1.624-0.706c-0.707,0-1.241,0.232-1.601,0.696
			C46.002,48.79,45.822,49.482,45.822,50.401z"/>
		<path fill="none" stroke="#174A8B" stroke-width="0.25" stroke-miterlimit="10" d="M56.469,54.104
			c-0.465,0-0.889-0.085-1.271-0.257c-0.385-0.171-0.707-0.435-0.967-0.791h-0.078c0.052,0.417,0.078,0.812,0.078,1.185v2.936h-1.08
			V46.842h0.878l0.149,0.977h0.053c0.277-0.391,0.601-0.673,0.969-0.847c0.369-0.173,0.793-0.26,1.27-0.26
			c0.945,0,1.676,0.323,2.189,0.97c0.515,0.646,0.771,1.553,0.771,2.72c0,1.172-0.262,2.082-0.783,2.73
			C58.123,53.78,57.397,54.104,56.469,54.104z M56.313,47.629c-0.729,0-1.256,0.202-1.581,0.605s-0.493,1.046-0.501,1.927v0.24
			c0,1.003,0.166,1.72,0.501,2.151c0.334,0.432,0.87,0.647,1.607,0.647c0.616,0,1.099-0.249,1.448-0.748
			c0.349-0.499,0.523-1.187,0.523-2.063c0-0.89-0.175-1.571-0.523-2.047C57.438,47.867,56.946,47.629,56.313,47.629z"/>
		<path fill="none" stroke="#174A8B" stroke-width="0.25" stroke-miterlimit="10" d="M65.918,52.028
			c0,0.664-0.247,1.176-0.741,1.536c-0.495,0.36-1.188,0.54-2.083,0.54c-0.945,0-1.684-0.149-2.213-0.449v-1.002
			c0.344,0.174,0.711,0.311,1.104,0.41s0.771,0.149,1.136,0.149c0.563,0,0.997-0.09,1.302-0.27c0.303-0.181,0.455-0.455,0.455-0.823
			c0-0.278-0.12-0.516-0.361-0.713c-0.24-0.197-0.71-0.431-1.408-0.699c-0.664-0.248-1.137-0.464-1.416-0.648
			c-0.279-0.184-0.488-0.394-0.625-0.628s-0.205-0.514-0.205-0.839c0-0.582,0.236-1.04,0.71-1.377
			c0.473-0.336,1.121-0.504,1.946-0.504c0.768,0,1.518,0.156,2.251,0.469l-0.384,0.878c-0.716-0.295-1.365-0.442-1.945-0.442
			c-0.513,0-0.898,0.08-1.159,0.241c-0.261,0.16-0.39,0.382-0.39,0.663c0,0.191,0.049,0.354,0.146,0.488
			c0.098,0.135,0.254,0.263,0.471,0.384c0.217,0.122,0.634,0.298,1.25,0.527c0.846,0.309,1.418,0.618,1.715,0.931
			S65.918,51.556,65.918,52.028z"/>
	</g>
</g>
</svg>
