<?xml version="1.0" encoding="utf-8"?>
<!-- Generator: Adobe Illustrator 16.0.0, SVG Export Plug-In . SVG Version: 6.00 Build 0)  -->
<!DOCTYPE svg PUBLIC "-//W3C//DTD SVG 1.1//EN" "http://www.w3.org/Graphics/SVG/1.1/DTD/svg11.dtd">
<svg version="1.1" id="Layer_1" xmlns="http://www.w3.org/2000/svg" xmlns:xlink="http://www.w3.org/1999/xlink" x="0px" y="0px"
	 width="100px" height="100px" viewBox="0 0 100 100" enable-background="new 0 0 100 100" xml:space="preserve">
<g>
	<g id="Layer_1_13_">
		<g>
			<path opacity="0.5" fill="#D8E5E3" enable-background="new    " d="M2.309,41.542c-1.125,1.36-1.09,3.091,1.455,6.909
				s6.545,3.092,8.363,2.182c1.818-0.908,8.184-5.454,11.82-6c3.637-0.545,6.182,1.455,7.637,3.273
				c1.455,1.818,3.818,4.908-2.545,7.818c-6.365,2.909-14.91,8.002-12.127,12.981c2.115,3.787,4.955,4.674,9.762,1.928
				c6.014-3.434,9.455-0.727,10.547,2.548c1.092,3.271-0.748,4.948-7.092,11.637c-2.066,2.178-5.1,14.813,6.365,10.182
				C50.351,89.4,93.59,60.635,93.59,60.635s6.182-2.363,1.635-8.546c-3.145-4.28-7.271-1.091-8.545-0.362
				c-1.272,0.727-11.652,9.646-16.729,2.362c-4.184-6,4.385-11.365,7.092-12.546c2.266-0.99,11.273-4.001,6.727-10.183
				c-4.545-6.183-10.713-0.303-13.817,1.637c-3.718,2.32-8.19,2.03-11.093-2c-3.272-4.547-4.547-6.547,8.545-13.639
				c0,0,5.093-2.545,2-7.818c-3.09-5.273-7.817-2.363-12,0C53.223,11.903,12.467,29.271,2.309,41.542z"/>
			<path opacity="0.5" fill="#D8E5E3" enable-background="new    " d="M92.082,32.855c-2.834,1.516-6.279,0.598-7.693-2.05
				l-0.215-0.399c-1.414-2.648-0.264-6.023,2.57-7.537l2.992-1.6c2.834-1.516,6.281-0.598,7.695,2.051l0.213,0.4
				c1.416,2.646,0.266,6.021-2.568,7.535L92.082,32.855z"/>
		</g>
	</g>
	<g>
		<circle fill="#F5CDD5" cx="10.131" cy="29.077" r="0.742"/>
		<circle fill="#F5CDD5" cx="93.473" cy="41.584" r="1.643"/>
		<circle fill="#DAEFEC" cx="24.811" cy="9.046" r="1.643"/>
		<circle fill="#E7F1D5" cx="80.811" cy="6.046" r="1.643"/>
		<circle fill="#E7F1D5" cx="30.811" cy="73.046" r="1.644"/>
		<circle fill="#E7F1D5" cx="61.811" cy="87.046" r="1.644"/>
	</g>
</g>
<g enable-background="new    ">
	<path fill="none" stroke="#174A8B" stroke-width="0.25" stroke-miterlimit="10" d="M46.954,53.137h-1.271v1.969h-0.932v-1.969
		h-4.166v-0.85l4.066-5.795h1.031v5.76h1.271V53.137z M44.751,52.252v-2.848c0-0.559,0.02-1.189,0.059-1.893h-0.047
		c-0.188,0.375-0.363,0.686-0.527,0.932l-2.678,3.809H44.751z"/>
	<path fill="none" stroke="#174A8B" stroke-width="0.25" stroke-miterlimit="10" d="M53.458,50.811c0,1.48-0.233,2.586-0.7,3.316
		s-1.181,1.096-2.142,1.096c-0.922,0-1.623-0.374-2.104-1.122s-0.721-1.845-0.721-3.29c0-1.492,0.232-2.6,0.697-3.322
		s1.174-1.084,2.127-1.084c0.93,0,1.636,0.377,2.118,1.131S53.458,49.381,53.458,50.811z M48.776,50.811
		c0,1.246,0.146,2.153,0.439,2.722s0.76,0.853,1.4,0.853c0.648,0,1.118-0.288,1.409-0.864s0.437-1.479,0.437-2.71
		s-0.146-2.132-0.437-2.704s-0.761-0.858-1.409-0.858c-0.641,0-1.107,0.282-1.4,0.847S48.776,49.564,48.776,50.811z"/>
	<path fill="none" stroke="#174A8B" stroke-width="0.25" stroke-miterlimit="10" d="M60.677,53.137h-1.271v1.969h-0.932v-1.969
		h-4.166v-0.85l4.066-5.795h1.031v5.76h1.271V53.137z M58.474,52.252v-2.848c0-0.559,0.02-1.189,0.059-1.893h-0.047
		c-0.188,0.375-0.363,0.686-0.527,0.932l-2.678,3.809H58.474z"/>
</g>
</svg>
