<?xml version="1.0" encoding="utf-8"?>
<!-- Generator: Adobe Illustrator 16.0.0, SVG Export Plug-In . SVG Version: 6.00 Build 0)  -->
<!DOCTYPE svg PUBLIC "-//W3C//DTD SVG 1.1//EN" "http://www.w3.org/Graphics/SVG/1.1/DTD/svg11.dtd">
<svg version="1.1" id="Layer_1" xmlns="http://www.w3.org/2000/svg" xmlns:xlink="http://www.w3.org/1999/xlink" x="0px" y="0px"
	 width="185px" height="175px" viewBox="0 0 185 175" enable-background="new 0 0 185 175" xml:space="preserve">
<g>
	<g>
		<g id="Layer_1_11_">
			<g>
				<path opacity="0.5" fill="#D8E5E3" enable-background="new    " d="M4.987,68.5c-2.055,2.485-1.992,5.646,2.658,12.62
					c4.648,6.974,11.954,5.647,15.275,3.984c3.321-1.659,14.947-9.961,21.589-10.958c6.642-0.996,11.291,2.658,13.948,5.979
					c2.656,3.321,6.974,8.966-4.65,14.28c-11.625,5.315-27.233,14.616-22.148,23.713c3.863,6.913,9.05,8.532,17.83,3.521
					c10.984-6.271,17.27-1.327,19.264,4.648c1.992,5.979-1.367,9.043-12.953,21.258c-3.774,3.978-9.314,27.058,11.624,18.596
					c25.312-10.228,104.283-62.767,104.283-62.767s11.294-4.318,2.989-15.611c-5.743-7.816-13.284-1.992-15.606-0.664
					c-2.326,1.327-21.283,17.619-30.559,4.316c-7.637-10.958,8.013-20.756,12.953-22.915c4.142-1.809,20.591-7.308,12.29-18.598
					c-8.302-11.292-19.57-0.553-25.243,2.989c-6.784,4.238-14.957,3.708-20.259-3.653c-5.975-8.305-8.301-11.958,15.611-24.911
					c0,0,9.3-4.648,3.652-14.28c-5.644-9.632-14.279-4.316-21.917,0C97.978,14.365,23.539,46.089,4.987,68.5z"/>
				<path opacity="0.5" fill="#D8E5E3" enable-background="new    " d="M168.957,52.635c-5.177,2.769-11.47,1.092-14.056-3.744
					l-0.389-0.729c-2.587-4.837-0.481-11.001,4.694-13.767l5.465-2.921c5.177-2.768,11.47-1.092,14.052,3.746l0.389,0.731
					c2.59,4.833,0.485,10.998-4.69,13.763L168.957,52.635z"/>
			</g>
		</g>
		<g>
			<circle fill="#F5CDD5" cx="13.012" cy="53.928" r="1.356"/>
			<path fill="#F5CDD5" d="M168.232,76.773c0,1.657-1.342,3-2.996,3c-1.659,0-3.001-1.343-3.001-3c0-1.657,1.342-3,3.001-3
				C166.891,73.773,168.232,75.116,168.232,76.773z"/>
			<circle fill="#DAEFEC" cx="39.826" cy="17.343" r="3"/>
			<path fill="#E7F1D5" d="M145.109,11.864c0,1.659-1.346,3-3,3c-1.659,0-3.001-1.341-3.001-3c0-1.655,1.342-3,3.001-3
				C143.764,8.864,145.109,10.209,145.109,11.864z"/>
			<circle fill="#E7F1D5" cx="50.785" cy="134.237" r="3"/>
			<circle fill="#E7F1D5" cx="107.406" cy="159.808" r="3"/>
		</g>
	</g>
	<g>
		<path fill="#F7FCFC" d="M110.545,117.667c0,1.766-1.38,3.2-3.08,3.2H72.548c-1.702,0-3.08-1.435-3.08-3.2V56.166
			c0-1.767,1.378-3.2,3.08-3.2h34.917c1.7,0,3.08,1.433,3.08,3.2V117.667z"/>
		<path fill="#174A8B" d="M107.465,121.135H72.548c-1.845,0-3.347-1.556-3.347-3.468V56.166c0-1.912,1.502-3.466,3.347-3.466h34.917
			c1.846,0,3.348,1.554,3.348,3.466v61.501C110.813,119.579,109.311,121.135,107.465,121.135z M72.548,53.232
			c-1.552,0-2.813,1.316-2.813,2.933v61.501c0,1.618,1.262,2.933,2.813,2.933h34.917c1.552,0,2.813-1.314,2.813-2.933V56.166
			c0-1.617-1.261-2.933-2.813-2.933H72.548z"/>
	</g>
	<g>
		<path fill="#DAEFEC" d="M108.313,110.005c0,1.284-1.229,2.329-2.745,2.329H74.445c-1.516,0-2.746-1.045-2.746-2.329V65.249
			c0-1.288,1.23-2.33,2.746-2.33h31.124c1.517,0,2.745,1.042,2.745,2.33V110.005z"/>
	</g>
	<g>
		<rect x="86.241" y="57.231" fill="#174A8B" width="7.531" height="1.333"/>
	</g>
	<g>
		<circle fill="#AEDED7" cx="90.007" cy="116.154" r="1.867"/>
		<path fill="#174A8B" d="M90.007,118.156c-1.103,0-2-0.899-2-2.002c0-1.102,0.896-1.999,2-1.999c1.102,0,2,0.897,2,1.999
			C92.007,117.257,91.109,118.156,90.007,118.156z M90.007,114.421c-0.956,0-1.733,0.777-1.733,1.733s0.777,1.734,1.733,1.734
			c0.955,0,1.733-0.778,1.733-1.734S90.962,114.421,90.007,114.421z"/>
	</g>
</g>
<g>
	<g>
		<circle fill="#F7FCFC" cx="90.719" cy="86.915" r="7.921"/>
		<path fill="#174A8B" d="M90.72,94.933c-4.42,0-8.017-3.596-8.017-8.018c0-4.42,3.597-8.016,8.017-8.016s8.018,3.596,8.018,8.016
			C98.737,91.337,95.14,94.933,90.72,94.933z M90.72,79.088c-4.316,0-7.828,3.512-7.828,7.827c0,4.316,3.511,7.828,7.828,7.828
			s7.829-3.512,7.829-7.828C98.549,82.601,95.036,79.088,90.72,79.088z"/>
	</g>
	<g>
		<path fill="#174A8B" d="M90.041,82.749c0-0.184,0.061-0.339,0.184-0.471c0.124-0.132,0.28-0.196,0.471-0.196
			s0.354,0.064,0.489,0.196c0.135,0.132,0.203,0.287,0.203,0.471s-0.068,0.333-0.203,0.453c-0.135,0.12-0.298,0.178-0.489,0.178
			s-0.347-0.059-0.471-0.178C90.102,83.082,90.041,82.932,90.041,82.749z M90.244,84.561h0.953v5.963h-0.953V84.561z"/>
	</g>
</g>
</svg>
