<?xml version="1.0" encoding="utf-8"?>
<!-- Generator: Adobe Illustrator 16.0.0, SVG Export Plug-In . SVG Version: 6.00 Build 0)  -->
<!DOCTYPE svg PUBLIC "-//W3C//DTD SVG 1.1//EN" "http://www.w3.org/Graphics/SVG/1.1/DTD/svg11.dtd">
<svg version="1.1" id="Layer_1" xmlns="http://www.w3.org/2000/svg" xmlns:xlink="http://www.w3.org/1999/xlink" x="0px" y="0px"
	 width="185px" height="175px" viewBox="0 0 185 175" enable-background="new 0 0 185 175" xml:space="preserve">
<g>
	<g id="Layer_1_10_">
		<g>
			<path opacity="0.5" fill="#D8E5E3" enable-background="new    " d="M7.423,69.458c-1.982,2.396-1.921,5.445,2.563,12.171
				c4.483,6.727,11.529,5.447,14.732,3.843c3.203-1.6,14.416-9.608,20.822-10.569c6.406-0.96,10.889,2.563,13.453,5.766
				c2.562,3.203,6.726,8.648-4.485,13.771c-11.211,5.127-26.265,14.097-21.361,22.87c3.726,6.669,8.729,8.231,17.196,3.397
				c10.594-6.051,16.656-1.282,18.579,4.482c1.922,5.767-1.318,8.723-12.493,20.503c-3.64,3.836-8.983,26.097,11.211,17.936
				c24.413-9.864,100.577-60.538,100.577-60.538s10.893-4.163,2.884-15.056c-5.54-7.538-12.813-1.921-15.053-0.64
				c-2.243,1.28-20.526,16.992-29.472,4.162c-7.366-10.568,7.728-20.018,12.492-22.1c3.995-1.744,19.859-7.048,11.853-17.938
				c-8.006-10.891-18.875-0.533-24.345,2.883c-6.544,4.087-14.427,3.577-19.539-3.523c-5.763-8.01-8.007-11.533,15.056-24.025
				c0,0,8.97-4.483,3.523-13.773c-5.443-9.29-13.772-4.163-21.139,0C97.109,17.246,25.316,47.843,7.423,69.458z"/>
			<path opacity="0.5" fill="#D8E5E3" enable-background="new    " d="M165.566,54.156c-4.992,2.67-11.062,1.053-13.556-3.611
				l-0.375-0.704c-2.495-4.666-0.465-10.611,4.527-13.277l5.271-2.818c4.992-2.67,11.061-1.053,13.552,3.613l0.375,0.705
				c2.498,4.662,0.468,10.607-4.524,13.274L165.566,54.156z"/>
		</g>
	</g>
	<g>
		<circle fill="#F5CDD5" cx="15.163" cy="55.403" r="1.307"/>
		<circle fill="#F5CDD5" cx="161.976" cy="77.437" r="2.892"/>
		<circle fill="#DAEFEC" cx="41.024" cy="20.119" r="2.894"/>
		<circle fill="#E7F1D5" cx="139.673" cy="14.834" r="2.894"/>
		<circle fill="#E7F1D5" cx="51.593" cy="132.859" r="2.894"/>
		<circle fill="#E7F1D5" cx="106.203" cy="157.521" r="2.894"/>
	</g>
</g>
<g>
	<path fill="#F7FCFC" d="M109.23,116.879c0,1.702-1.331,3.084-2.971,3.084H72.583c-1.641,0-2.971-1.382-2.971-3.084V57.562
		c0-1.704,1.33-3.086,2.971-3.086h33.676c1.64,0,2.971,1.382,2.971,3.086V116.879z"/>
	<path fill="#174A8B" d="M106.26,120.221H72.583c-1.78,0-3.228-1.5-3.228-3.342V57.562c0-1.844,1.448-3.343,3.228-3.343h33.676
		c1.78,0,3.229,1.499,3.229,3.343v59.317C109.488,118.721,108.04,120.221,106.26,120.221z M72.583,54.732
		c-1.497,0-2.714,1.27-2.714,2.829v59.317c0,1.56,1.217,2.828,2.714,2.828h33.676c1.496,0,2.713-1.269,2.713-2.828V57.562
		c0-1.56-1.217-2.829-2.713-2.829H72.583z"/>
</g>
<g>
	<path fill="#DAEFEC" d="M107.078,109.486c0,1.24-1.185,2.247-2.647,2.247H74.413c-1.462,0-2.648-1.007-2.648-2.247V66.321
		c0-1.241,1.186-2.246,2.648-2.246h30.018c1.463,0,2.647,1.005,2.647,2.246V109.486z"/>
</g>
<g>
	<rect x="85.79" y="58.589" fill="#174A8B" width="7.264" height="1.285"/>
</g>
<g>
	<circle fill="#AEDED7" cx="89.422" cy="115.42" r="1.8"/>
	<path fill="#174A8B" d="M89.422,117.348c-1.064,0-1.929-0.865-1.929-1.928c0-1.063,0.865-1.929,1.929-1.929
		c1.063,0,1.928,0.865,1.928,1.929C91.351,116.482,90.485,117.348,89.422,117.348z M89.422,113.747
		c-0.922,0-1.671,0.751-1.671,1.673s0.749,1.67,1.671,1.67c0.921,0,1.671-0.748,1.671-1.67S90.344,113.747,89.422,113.747z"/>
</g>
<path fill="#AEDED7" stroke="#174A8B" stroke-width="0.4404" stroke-miterlimit="10" d="M82.619,81.89c0,0,5.433-0.922,7.739-2.787
	c0,0,2.854,2.138,7.244,2.911l0,0c0,0-0.138,4.225-1.961,7.118c-1.823,2.894-5.376,5.171-5.376,5.171S86.4,92.31,84.687,89.03
	C82.975,85.752,82.688,82.413,82.619,81.89z"/>
<path fill="#174A8B" d="M93.297,83.955l-4.613,4.535l-1.262-1.328c-0.145-0.143-0.378-0.145-0.522,0
	c-0.139,0.138-0.146,0.364-0.013,0.511l1.519,1.599c0.069,0.072,0.163,0.113,0.263,0.115h0.005c0.097,0,0.19-0.038,0.259-0.106
	l4.881-4.802c0.145-0.142,0.146-0.376,0.003-0.52c-0.143-0.146-0.377-0.148-0.521-0.005L93.297,83.955z"/>
</svg>
