<?xml version="1.0" encoding="utf-8"?>
<!-- Generator: Adobe Illustrator 16.0.0, SVG Export Plug-In . SVG Version: 6.00 Build 0)  -->
<!DOCTYPE svg PUBLIC "-//W3C//DTD SVG 1.1//EN" "http://www.w3.org/Graphics/SVG/1.1/DTD/svg11.dtd">
<svg version="1.1" id="Layer_1" xmlns="http://www.w3.org/2000/svg" xmlns:xlink="http://www.w3.org/1999/xlink" x="0px" y="0px" width="28px" height="50px" viewBox="0 0 28 50" enable-background="new 0 0 28 50" xml:space="preserve">
    <g>
        <path fill="#949494" d="M23.386,48.967H4.604c-2.037,0-3.693-1.656-3.693-3.693V4.728c0-2.037,1.656-3.694,3.693-3.694h18.781
    c2.035,0,3.693,1.657,3.693,3.694v40.546C27.079,47.311,25.423,48.967,23.386,48.967z M4.604,1.811
    c-1.607,0-2.916,1.309-2.916,2.917v40.546c0,1.607,1.309,2.916,2.916,2.916h18.781c1.607,0,2.916-1.309,2.916-2.916V4.728
    c0-1.608-1.309-2.917-2.916-2.917H4.604z" />
    </g>
    <g>
        <path fill="#949494" d="M27.089,7.958c0,0.179-0.195,0.323-0.438,0.323H1.737c-0.242,0-0.438-0.145-0.438-0.323l0,0
    c0-0.178,0.196-0.322,0.438-0.322h24.914C26.894,7.636,27.089,7.779,27.089,7.958L27.089,7.958z" />
        <path fill="#949494" d="M27.089,42.66c0,0.178-0.195,0.322-0.438,0.322H1.737c-0.242,0-0.438-0.146-0.438-0.322l0,0
    c0-0.18,0.196-0.324,0.438-0.324h24.914C26.894,42.336,27.089,42.48,27.089,42.66L27.089,42.66z" />
        <path id="Arrow_Download_1_" fill="#43BD9F" d="M17.851,25.922c-0.141-0.15-0.371-0.15-0.514,0l-2.98,3.168V18.424
    c0-0.214-0.16-0.388-0.361-0.388s-0.364,0.174-0.364,0.388V29.09l-2.979-3.168c-0.142-0.15-0.371-0.15-0.514,0
    s-0.143,0.396,0,0.548l3.6,3.829c0.143,0.146,0.375,0.146,0.515,0l3.603-3.829C17.993,26.318,17.993,26.073,17.851,25.922
    C17.71,25.771,17.993,26.073,17.851,25.922z" />
    </g>
</svg>
