<?xml version="1.0" encoding="utf-8"?>
<!-- Generator: Adobe Illustrator 16.0.0, SVG Export Plug-In . SVG Version: 6.00 Build 0)  -->
<!DOCTYPE svg PUBLIC "-//W3C//DTD SVG 1.1//EN" "http://www.w3.org/Graphics/SVG/1.1/DTD/svg11.dtd">
<svg version="1.1" id="Layer_1" xmlns="http://www.w3.org/2000/svg" xmlns:xlink="http://www.w3.org/1999/xlink" x="0px" y="0px"
	 width="195px" height="45px" viewBox="0 0 195 45" enable-background="new 0 0 195 45" xml:space="preserve">
<g>
	<path id="path11" fill="#5c5c5c" d="M72.324,7.371c9.771-0.129,19.548-0.027,29.319-0.048c0.012,2.943,0.048,5.886-0.021,8.828
		c-2.832,0.004-5.664-0.006-8.496-0.021c-0.048,7.169-0.015,14.34-0.021,21.51c-4.094-0.007-8.192-0.01-12.287,0
		c0.132-7.191,0.021-14.383,0.069-21.574c-2.856,0.181-5.718,0.024-8.577,0.094C72.363,13.233,72.339,10.301,72.324,7.371z"/>
	<path id="path13" fill="#5c5c5c" d="M109.959,7.877c0.117-0.756,0.957-0.531,1.497-0.564c3.857,0.049,7.719-0.08,11.574,0.049
		c3.861,10.08,7.768,20.141,11.563,30.248c-3.97,0.066-7.936-0.032-11.904,0.072c-2.022-5.994-4.06-11.979-6.114-17.96
		c-1.985,5.976-4.002,11.943-6.09,17.88c-3.978,0.092-7.956-0.045-11.931,0.086C102.351,27.749,106.14,17.807,109.959,7.877z"/>
	<path id="path15" fill="#5c5c5c" d="M131.562,7.323c9.757-0.01,19.516-0.012,29.271,0c0.075,2.922,0.003,5.847,0.049,8.769
		c-2.854,0.114-5.707,0.021-8.56,0.06c-0.006,7.176-0.036,14.352,0.026,21.529c-4.086-0.103-8.172-0.004-12.254-0.066
		c0.032-7.155,0.015-14.307,0.015-21.462c-2.871-0.012-5.739-0.002-8.61,0.01C131.604,13.214,131.521,10.268,131.562,7.323z"/>
	<path id="path17" fill="#5c5c5c" d="M169.407,7.311c4.271,0.008,8.541-0.019,12.813,0.021c3.889,10.083,7.789,20.166,11.571,30.288
		c-3.954,0.048-7.911-0.033-11.864,0.054c-2.059-5.919-4.012-11.877-6.108-17.78c-2.14,5.871-4.021,11.833-6.108,17.723
		c-3.992,0.071-7.986-0.066-11.976,0.081C161.652,27.578,165.483,17.426,169.407,7.311z"/>
</g>
<g>
	<path id="path5" fill="#5c5c5c" d="M15.614,4.835c4.511-2.072,9.427-3.17,14.361-3.568c2.301-0.009,4.601,0.032,6.902-0.019
		c7.456,0.568,14.979,2.787,20.953,7.413c2.314,1.904,4.486,4.117,5.82,6.833c-8.671-1.895-17.485-3.315-26.367-3.576
		c-1.021-0.07-2.278,0.623-2.254,1.76c0.026,9.998,0,19.993,0.003,29.993c-0.996,0.041-1.988,0.022-2.983,0.039
		c-0.003-10.078,0.01-20.159,0.046-30.238c-0.122-1.062-1.336-1.666-2.32-1.551c-8.898,0.302-17.745,1.66-26.415,3.655
		c0.826-1.725,1.999-3.256,3.346-4.604C9.206,8.332,12.317,6.337,15.614,4.835z"/>
	<path id="path7" fill="#5c5c5c" d="M2.07,18.884c7.547-1.477,15.192-2.544,22.875-2.96c1.182-0.078,2.563,0.571,2.896,1.785
		c0.309,1.808-0.036,3.646-0.388,5.424c-1.336,6.499-2.676,12.996-4.004,19.499c-5.267-1.198-10.411-3.333-14.627-6.761
		c-2.369-1.977-4.473-4.351-5.779-7.168C1.603,25.673,1.207,22.135,2.07,18.884z"/>
	<path id="path9" fill="#5c5c5c" d="M40.975,16.114c0.693-0.297,1.461-0.179,2.192-0.144c7.101,0.426,14.148,1.467,21.144,2.723
		c0.247,0.083,0.676,0.05,0.721,0.396c0.846,3.345,0.348,6.975-1.219,10.03c-1.584,3.13-4.082,5.718-6.897,7.77
		c-2.769,1.934-5.818,3.476-9.025,4.543c-1.363,0.489-2.774,0.805-4.151,1.235c-1.08-5.484-2.237-10.955-3.359-16.433
		c-0.488-2.692-1.345-5.383-1.098-8.151C39.32,17.128,40.134,16.425,40.975,16.114z"/>
</g>
</svg>
